<?xml version="1.0" encoding="utf-8"?>
<!-- Generator: Adobe Illustrator 16.0.0, SVG Export Plug-In . SVG Version: 6.00 Build 0)  -->
<!DOCTYPE svg PUBLIC "-//W3C//DTD SVG 1.1//EN" "http://www.w3.org/Graphics/SVG/1.1/DTD/svg11.dtd">
<svg version="1.1" id="Layer_1" xmlns="http://www.w3.org/2000/svg" xmlns:xlink="http://www.w3.org/1999/xlink" x="0px" y="0px"
	 width="413px" height="351px" viewBox="0 0 413 351" enable-background="new 0 0 413 351" xml:space="preserve">
<path fill="#FCC58D" d="M293.596,193.559c-3.806,3.291-10.661,15.529-22.112,15.529c-11.451,0-9.674-3.88-22.31-16.12
	c-12.636-12.241-20.693,3.221-21.52,10.069c-0.861,7.123-1.185,27.048-10.859,27.048c-9.674,0-8.884-21.915-9.082-27.443
	c-0.197-5.528-2.961-12.241-2.961-12.241c-8.094-16.386-21.784-2.235-24.087,2.369c-2.961,5.923-15.794,7.897-20.73,0.198
	c-4.936-7.7-10.266-6.121-15.004-2.172c-4.738,3.948-6.121,10.068-6.515,17.571c-0.395,7.503-1.974,27.048-14.807,27.048
	c-12.833,0-14.215-22.903-15.005-26.258c-0.79-3.356-1.185-12.241-8.292-18.361c-3.318-2.857-7.1-3.036-10.2-2.427v118.647h217.438
	V192.764C302.286,188.748,298.59,189.244,293.596,193.559z"/>
<g>
	<polygon fill="none" points="183.048,307.21 196.658,307.21 189.853,300.405 	"/>
	<polygon fill="none" points="209.715,280.543 194.32,295.938 205.592,307.21 213.841,307.21 225.112,295.939 	"/>
	<polygon fill="none" points="249.441,280.544 234.046,295.939 245.316,307.21 253.565,307.21 264.835,295.939 	"/>
	
		<rect x="278.278" y="205.603" transform="matrix(0.7071 0.7071 -0.7071 0.7071 237.7754 -141.0626)" fill="none" width="21.774" height="21.771"/>
	<polygon fill="none" points="289.166,280.544 273.77,295.939 285.04,307.21 293.292,307.21 304.561,295.939 	"/>
	<polygon fill="none" points="262.499,307.21 276.106,307.21 269.303,300.406 	"/>
	<polygon fill="none" points="143.324,307.21 156.932,307.21 150.128,300.406 	"/>
	<polygon fill="none" points="169.991,280.543 154.595,295.939 165.865,307.21 174.114,307.21 185.386,295.938 	"/>
	<polygon fill="none" points="90.54,280.544 90.11,280.975 90.11,307.21 94.666,307.21 105.937,295.939 	"/>
	<polygon fill="none" points="105.937,256.215 90.54,240.819 90.11,241.25 90.11,271.18 90.54,271.61 	"/>
	<path fill="none" d="M108.792,210.41c-0.068-0.438-0.131-0.814-0.19-1.06c-0.783-3.328-1.197-12.078-8.125-18.192l-5.468,5.469
		L108.792,210.41z"/>
	<polygon fill="none" points="105.937,216.488 90.542,201.094 90.11,201.525 90.11,231.455 90.54,231.885 	"/>
	
		<rect x="258.416" y="225.465" transform="matrix(-0.7071 0.7071 -0.7071 -0.7071 626.8546 213.0524)" fill="none" width="21.774" height="21.774"/>
	<polygon fill="none" points="103.6,307.21 117.208,307.21 110.404,300.406 	"/>
	<polygon fill="none" points="130.266,280.544 114.871,295.939 126.142,307.21 134.39,307.21 145.661,295.939 	"/>
	<path fill="none" d="M94.328,188.373c-1.47-0.167-2.906-0.068-4.218,0.189v3.165l0.432,0.432L94.328,188.373z"/>
	
		<rect x="218.691" y="265.191" transform="matrix(-0.7071 -0.7071 0.7071 -0.7071 196.6983 633.6284)" fill="none" width="21.774" height="21.772"/>
	
		<rect x="198.829" y="245.328" transform="matrix(0.7071 -0.7071 0.7071 0.7071 -119.7467 223.3396)" fill="none" width="21.772" height="21.771"/>
	
		<rect x="159.105" y="245.328" transform="matrix(0.7071 -0.7071 0.7071 0.7071 -131.3821 195.25)" fill="none" width="21.772" height="21.771"/>
	
		<rect x="238.555" y="205.602" transform="matrix(0.7071 0.7071 -0.7071 0.7071 226.1342 -112.973)" fill="none" width="21.771" height="21.771"/>
	
		<rect x="238.554" y="245.328" transform="matrix(0.7071 -0.7071 0.7071 0.7071 -108.1113 251.4079)" fill="none" width="21.774" height="21.774"/>
	
		<rect x="278.279" y="245.328" transform="matrix(0.7071 -0.7071 0.7071 0.7071 -96.4761 279.5206)" fill="none" width="21.774" height="21.773"/>
	
		<rect x="258.417" y="265.191" transform="matrix(-0.7071 -0.7071 0.7071 -0.7071 264.5133 661.7193)" fill="none" width="21.773" height="21.773"/>
	
		<rect x="178.967" y="265.19" transform="matrix(-0.7071 -0.7071 0.7071 -0.7071 128.8893 605.5388)" fill="none" width="21.771" height="21.771"/>
	
		<rect x="139.242" y="265.19" transform="matrix(-0.7071 -0.7071 0.7071 -0.7071 61.0696 577.4492)" fill="none" width="21.773" height="21.774"/>
	
		<rect x="218.691" y="225.465" transform="matrix(0.7071 0.7071 -0.7071 0.7071 234.3836 -93.11)" fill="none" width="21.773" height="21.774"/>
	
		<rect x="159.104" y="205.603" transform="matrix(0.7071 0.7071 -0.7071 0.7071 202.8742 -56.7927)" fill="none" width="21.772" height="21.771"/>
	
		<rect x="178.967" y="225.466" transform="matrix(-0.7071 0.7071 -0.7071 -0.7071 491.2262 269.2274)" fill="none" width="21.772" height="21.772"/>
	
		<rect x="119.379" y="245.329" transform="matrix(0.7071 -0.7071 0.7071 0.7071 -143.0214 167.1682)" fill="none" width="21.773" height="21.772"/>
	
		<rect x="99.516" y="265.191" transform="matrix(-0.7071 -0.7071 0.7071 -0.7071 -6.7375 549.3636)" fill="none" width="21.773" height="21.772"/>
	
		<rect x="139.241" y="225.465" transform="matrix(0.7071 0.7071 -0.7071 0.7071 211.0977 -36.9309)" fill="none" width="21.774" height="21.773"/>
	<polygon fill="none" points="222.775,307.21 236.382,307.21 229.579,300.406 	"/>
	<polygon fill="none" points="307.547,307.21 307.547,301.887 302.225,307.21 	"/>
	<path fill="none" d="M244.974,196.626l-7.567-7.567c-5.736,1.94-9.226,9.797-9.752,14.169c-0.19,1.575-0.36,3.792-0.604,6.265
		l2.528,2.527L244.974,196.626z"/>
	<path fill="none" d="M164.915,197.237c-1.973-0.802-3.731-2.127-4.981-4.077c-4.936-7.699-10.266-6.12-15.004-2.172
		c-3.072,2.561-4.721,6.047-5.617,10.218l10.815,10.815L164.915,197.237z"/>
	<path fill="none" d="M209.715,231.885l3.197-3.197c-5.451-5.009-5.05-20.681-5.193-25.597L194.32,216.49L209.715,231.885z"/>
	<path fill="none" d="M272.083,209.24c-0.202,0.008-0.395,0.041-0.6,0.041c-2.246,0-3.973-0.155-5.411-0.489l3.23,3.229
		L272.083,209.24z"/>
	<path fill="none" d="M307.547,210.542v-17.585c-2.849-2.172-5.238-2.982-7.625-2.622l-6.292,6.292L307.547,210.542z"/>
	<polygon fill="none" points="307.547,250.266 307.547,222.437 293.633,236.352 	"/>
	<polygon fill="none" points="307.547,289.991 307.547,262.163 293.633,276.077 	"/>
	<path fill="none" d="M205.248,196.628l-13.243-13.245c-5.341,1.628-10.07,7.043-11.34,9.581c-0.976,1.951-3.034,3.462-5.52,4.35
		l14.708,14.71L205.248,196.628z"/>
	<path fill="none" d="M95.007,236.352l15.396,15.396l15.395-15.396l-0.872-0.872c-0.437,0.049-0.854,0.127-1.32,0.127
		c-7.211,0-10.807-7.23-12.713-14.162l-0.49-0.49L95.007,236.352z"/>
	<path fill="none" d="M138.377,209.205c-0.257,4.496-0.973,12.396-3.837,18.404l11.122-11.122L138.377,209.205z"/>
	<path fill="#FCD7AD" d="M307.547,301.887v-11.896l-13.915-13.914l13.915-13.914v-11.897l-13.915-13.914l13.915-13.915v-11.895
		l-13.916-13.916l6.292-6.292c-2.021,0.307-4.037,1.439-6.327,3.418c-3.738,3.231-10.428,15.064-21.512,15.487l-2.781,2.781
		l-3.23-3.229c-5.887-1.362-6.742-5.792-16.899-15.632c-4.566-4.423-8.522-5.199-11.768-4.101l7.567,7.567l-15.395,15.395
		l-2.528-2.527c-0.862,8.711-2.719,20.784-10.255,20.784c-1.558,0-2.819-0.614-3.883-1.59l-3.197,3.197L194.32,216.49l13.399-13.399
		c-0.003-0.079-0.003-0.184-0.006-0.256c-0.197-5.528-2.961-12.24-2.961-12.24c-3.634-7.357-8.394-8.538-12.747-7.211l13.243,13.245
		l-15.395,15.396l-14.708-14.71c-3.146,1.127-6.978,1.246-10.229-0.076l-14.787,14.784l-10.815-10.815
		c-0.486,2.26-0.759,4.716-0.898,7.354c-0.011,0.197-0.026,0.432-0.038,0.645l7.284,7.283l-11.122,11.122
		c-1.979,4.152-5.003,7.343-9.612,7.871l0.872,0.872l-15.395,15.396l-15.396-15.396l15.396-15.396l0.49,0.49
		c-1.237-4.5-1.761-8.851-2.102-11.036l-13.783-13.783l5.468-5.469c-0.062-0.053-0.104-0.115-0.167-0.169
		c-1.914-1.646-3.979-2.385-5.982-2.615l-3.786,3.786l-0.432-0.432v9.798l0.432-0.432l15.395,15.394L90.54,231.885l-0.43-0.431
		v9.795l0.43-0.431l15.397,15.396L90.54,271.61l-0.43-0.43v9.794l0.43-0.431l15.397,15.396L94.666,307.21h8.934l6.804-6.804
		l6.804,6.804h8.934l-11.271-11.271l15.395-15.396l15.396,15.396L134.39,307.21h8.934l6.804-6.804l6.804,6.804h8.934l-11.271-11.271
		l15.396-15.396l15.395,15.395l-11.272,11.272h8.934l6.805-6.805l6.805,6.805h8.934l-11.271-11.272l15.395-15.395l15.396,15.396
		l-11.271,11.271h8.934l6.804-6.804l6.804,6.804h8.934l-11.271-11.271l15.395-15.396l15.395,15.396l-11.271,11.271h8.934
		l6.804-6.804l6.804,6.804h8.934l-11.271-11.271l15.396-15.396l15.396,15.396l-11.269,11.271h8.933L307.547,301.887z
		 M289.165,201.094l15.396,15.396l-15.396,15.395l-15.396-15.397L289.165,201.094z M284.699,236.352l-15.396,15.396l-15.396-15.396
		l15.396-15.396L284.699,236.352z M249.441,201.094l15.395,15.394l-15.395,15.397l-15.395-15.397L249.441,201.094z M229.579,220.956
		l15.395,15.396l-15.396,15.396l-15.395-15.396L229.579,220.956z M205.248,236.352l-15.395,15.396l-15.395-15.396l15.395-15.395
		L205.248,236.352z M169.991,201.095l15.395,15.396l-15.395,15.395l-15.396-15.397L169.991,201.095z M150.128,220.956l15.396,15.396
		l-15.395,15.396l-15.397-15.396L150.128,220.956z M110.404,291.473l-15.396-15.396l15.396-15.395l15.395,15.395L110.404,291.473z
		 M114.871,256.215l15.395-15.396l15.397,15.396l-15.397,15.396L114.871,256.215z M150.128,291.473l-15.396-15.396l15.397-15.396
		l15.395,15.395L150.128,291.473z M154.596,256.214l15.395-15.396l15.395,15.396l-15.395,15.394L154.596,256.214z M189.853,291.471
		l-15.395-15.395l15.395-15.395l15.395,15.395L189.853,291.471z M194.32,256.214l15.395-15.396l15.395,15.396l-15.395,15.394
		L194.32,256.214z M229.579,291.473l-15.396-15.396l15.395-15.395l15.396,15.396L229.579,291.473z M234.044,256.214l15.397-15.396
		l15.395,15.396l-15.395,15.395L234.044,256.214z M269.303,291.473l-15.396-15.396l15.396-15.395l15.396,15.395L269.303,291.473z
		 M273.77,256.215l15.396-15.396l15.396,15.396l-15.396,15.396L273.77,256.215z"/>
</g>
<path fill="#00FFCC" d="M100.31,191.05c7.107,6.121,7.502,15.004,8.292,18.361c0.79,3.355,2.172,26.258,15.005,26.258
	c12.833,0,14.412-19.546,14.807-27.049c0.395-7.502,1.777-13.623,6.515-17.571c4.738-3.949,10.069-5.528,15.004,2.171
	c4.937,7.7,17.77,5.726,20.73-0.197c2.303-4.605,15.993-18.756,24.087-2.369c0,0,2.764,6.712,2.961,12.241
	c0.198,5.528-0.592,27.442,9.082,27.442c9.674,0,9.998-19.925,10.859-27.048c0.827-6.846,8.884-22.31,21.52-10.069
	c12.636,12.24,10.859,16.12,22.31,16.12c11.451,0,18.306-12.238,22.112-15.528c4.995-4.315,8.69-4.811,13.952-0.796V41.396H90.11
	v147.227C93.21,188.014,96.992,188.193,100.31,191.05z"/>
</svg>
